{
    "asset" : {
        "generator" : "Khronos glTF Blender I/O v1.7.33",
        "version" : "2.0"
    },
    "scene" : 0,
    "scenes" : [
        {
            "name" : "Scene",
            "nodes" : [
                0,
                1,
                2,
                3,
                4
            ]
        }
    ],
    "nodes" : [
        {
            "mesh" : 0,
            "name" : "Sphere.001"
        },
        {
            "mesh" : 1,
            "name" : "Cylinder.001"
        },
        {
            "mesh" : 2,
            "name" : "eyes"
        },
        {
            "mesh" : 3,
            "name" : "mun"
        },
        {
            "mesh" : 4,
            "name" : "eyebrows"
        }
    ],
    "materials" : [
        {
            "doubleSided" : true,
            "name" : "HANDS",
            "pbrMetallicRoughness" : {
                "baseColorTexture" : {
                    "index" : 0
                },
                "metallicFactor" : 0,
                "metallicRoughnessTexture" : {
                    "index" : 1
                }
            }
        },
        {
            "doubleSided" : true,
            "name" : "BODY",
            "pbrMetallicRoughness" : {
                "baseColorTexture" : {
                    "index" : 2
                },
                "metallicFactor" : 0.5859649181365967,
                "metallicRoughnessTexture" : {
                    "index" : 3
                }
            }
        },
        {
            "alphaCutoff" : 0.8249211311340332,
            "alphaMode" : "MASK",
            "doubleSided" : true,
            "name" : "eyes",
            "pbrMetallicRoughness" : {
                "baseColorTexture" : {
                    "index" : 4
                },
                "metallicFactor" : 0,
                "roughnessFactor" : 0.5
            }
        },
        {
            "alphaCutoff" : 0.8564668893814087,
            "alphaMode" : "MASK",
            "doubleSided" : true,
            "name" : "mun",
            "pbrMetallicRoughness" : {
                "baseColorTexture" : {
                    "index" : 5
                },
                "metallicFactor" : 0,
                "roughnessFactor" : 0.5
            }
        },
        {
            "alphaCutoff" : 0.8091482520103455,
            "alphaMode" : "MASK",
            "doubleSided" : true,
            "name" : "eyebrows",
            "pbrMetallicRoughness" : {
                "baseColorTexture" : {
                    "index" : 6
                },
                "metallicFactor" : 0,
                "roughnessFactor" : 0.5
            }
        }
    ],
    "meshes" : [
        {
            "name" : "Sphere.001",
            "primitives" : [
                {
                    "attributes" : {
                        "POSITION" : 0,
                        "NORMAL" : 1,
                        "TEXCOORD_0" : 2
                    },
                    "indices" : 3,
                    "material" : 0
                }
            ]
        },
        {
            "name" : "Cylinder.001",
            "primitives" : [
                {
                    "attributes" : {
                        "POSITION" : 4,
                        "NORMAL" : 5,
                        "TEXCOORD_0" : 6
                    },
                    "indices" : 7,
                    "material" : 1
                }
            ]
        },
        {
            "name" : "eyes",
            "primitives" : [
                {
                    "attributes" : {
                        "POSITION" : 8,
                        "NORMAL" : 9,
                        "TEXCOORD_0" : 10
                    },
                    "indices" : 11,
                    "material" : 2
                }
            ]
        },
        {
            "name" : "mun",
            "primitives" : [
                {
                    "attributes" : {
                        "POSITION" : 12,
                        "NORMAL" : 13,
                        "TEXCOORD_0" : 14
                    },
                    "indices" : 11,
                    "material" : 3
                }
            ]
        },
        {
            "name" : "eyebrows",
            "primitives" : [
                {
                    "attributes" : {
                        "POSITION" : 15,
                        "NORMAL" : 16,
                        "TEXCOORD_0" : 17
                    },
                    "indices" : 11,
                    "material" : 4
                }
            ]
        }
    ],
    "textures" : [
        {
            "sampler" : 0,
            "source" : 0
        },
        {
            "sampler" : 0,
            "source" : 1
        },
        {
            "sampler" : 0,
            "source" : 2
        },
        {
            "sampler" : 0,
            "source" : 3
        },
        {
            "sampler" : 1,
            "source" : 4
        },
        {
            "sampler" : 1,
            "source" : 5
        },
        {
            "sampler" : 1,
            "source" : 6
        }
    ],
    "images" : [
        {
            "bufferView" : 4,
            "mimeType" : "image/png",
            "name" : "AVATAR_V1_TEXT_deffuse"
        },
        {
            "bufferView" : 5,
            "mimeType" : "image/png",
            "name" : "AVATAR_V1_TEXT_roughness.png"
        },
        {
            "bufferView" : 10,
            "mimeType" : "image/png",
            "name" : "AVATAR_V1_TEXT_deffuse_1"
        },
        {
            "bufferView" : 11,
            "mimeType" : "image/png",
            "name" : "AVATAR_V1_TEXT_roughness"
        },
        {
            "bufferView" : 16,
            "mimeType" : "image/png",
            "name" : "eyes"
        },
        {
            "bufferView" : 20,
            "mimeType" : "image/png",
            "name" : "mun"
        },
        {
            "bufferView" : 24,
            "mimeType" : "image/png",
            "name" : "eyebrows"
        }
    ],
    "accessors" : [
        {
            "bufferView" : 0,
            "componentType" : 5126,
            "count" : 304,
            "max" : [
                1.0847772359848022,
                1.444834589958191,
                0.274712473154068
            ],
            "min" : [
                -1.0847772359848022,
                0.7319153547286987,
                -0.27471235394477844
            ],
            "type" : "VEC3"
        },
        {
            "bufferView" : 1,
            "componentType" : 5126,
            "count" : 304,
            "type" : "VEC3"
        },
        {
            "bufferView" : 2,
            "componentType" : 5126,
            "count" : 304,
            "type" : "VEC2"
        },
        {
            "bufferView" : 3,
            "componentType" : 5123,
            "count" : 1560,
            "type" : "SCALAR"
        },
        {
            "bufferView" : 6,
            "componentType" : 5126,
            "count" : 196,
            "max" : [
                0.8173427581787109,
                2.883817195892334,
                0.8173427581787109
            ],
            "min" : [
                -0.8173427581787109,
                0.21659255027770996,
                -0.8173427581787109
            ],
            "type" : "VEC3"
        },
        {
            "bufferView" : 7,
            "componentType" : 5126,
            "count" : 196,
            "type" : "VEC3"
        },
        {
            "bufferView" : 8,
            "componentType" : 5126,
            "count" : 196,
            "type" : "VEC2"
        },
        {
            "bufferView" : 9,
            "componentType" : 5123,
            "count" : 738,
            "type" : "SCALAR"
        },
        {
            "bufferView" : 12,
            "componentType" : 5126,
            "count" : 4,
            "max" : [
                0.5,
                2.2169642448425293,
                0.8276422023773193
            ],
            "min" : [
                -0.5,
                1.2169643640518188,
                0.8276422023773193
            ],
            "type" : "VEC3"
        },
        {
            "bufferView" : 13,
            "componentType" : 5126,
            "count" : 4,
            "type" : "VEC3"
        },
        {
            "bufferView" : 14,
            "componentType" : 5126,
            "count" : 4,
            "type" : "VEC2"
        },
        {
            "bufferView" : 15,
            "componentType" : 5123,
            "count" : 6,
            "type" : "SCALAR"
        },
        {
            "bufferView" : 17,
            "componentType" : 5126,
            "count" : 4,
            "max" : [
                0.5,
                1.6053647994995117,
                0.7555999159812927
            ],
            "min" : [
                -0.5,
                0.6053647994995117,
                0.7555999159812927
            ],
            "type" : "VEC3"
        },
        {
            "bufferView" : 18,
            "componentType" : 5126,
            "count" : 4,
            "type" : "VEC3"
        },
        {
            "bufferView" : 19,
            "componentType" : 5126,
            "count" : 4,
            "type" : "VEC2"
        },
        {
            "bufferView" : 21,
            "componentType" : 5126,
            "count" : 4,
            "max" : [
                0.5,
                2.414858341217041,
                0.8282641768455505
            ],
            "min" : [
                -0.5,
                1.4148584604263306,
                0.8282641768455505
            ],
            "type" : "VEC3"
        },
        {
            "bufferView" : 22,
            "componentType" : 5126,
            "count" : 4,
            "type" : "VEC3"
        },
        {
            "bufferView" : 23,
            "componentType" : 5126,
            "count" : 4,
            "type" : "VEC2"
        }
    ],
    "bufferViews" : [
        {
            "buffer" : 0,
            "byteLength" : 3648,
            "byteOffset" : 0
        },
        {
            "buffer" : 0,
            "byteLength" : 3648,
            "byteOffset" : 3648
        },
        {
            "buffer" : 0,
            "byteLength" : 2432,
            "byteOffset" : 7296
        },
        {
            "buffer" : 0,
            "byteLength" : 3120,
            "byteOffset" : 9728
        },
        {
            "buffer" : 0,
            "byteLength" : 5359,
            "byteOffset" : 12848
        },
        {
            "buffer" : 0,
            "byteLength" : 15799,
            "byteOffset" : 18208
        },
        {
            "buffer" : 0,
            "byteLength" : 2352,
            "byteOffset" : 34008
        },
        {
            "buffer" : 0,
            "byteLength" : 2352,
            "byteOffset" : 36360
        },
        {
            "buffer" : 0,
            "byteLength" : 1568,
            "byteOffset" : 38712
        },
        {
            "buffer" : 0,
            "byteLength" : 1476,
            "byteOffset" : 40280
        },
        {
            "buffer" : 0,
            "byteLength" : 5359,
            "byteOffset" : 41756
        },
        {
            "buffer" : 0,
            "byteLength" : 15799,
            "byteOffset" : 47116
        },
        {
            "buffer" : 0,
            "byteLength" : 48,
            "byteOffset" : 62916
        },
        {
            "buffer" : 0,
            "byteLength" : 48,
            "byteOffset" : 62964
        },
        {
            "buffer" : 0,
            "byteLength" : 32,
            "byteOffset" : 63012
        },
        {
            "buffer" : 0,
            "byteLength" : 12,
            "byteOffset" : 63044
        },
        {
            "buffer" : 0,
            "byteLength" : 35594,
            "byteOffset" : 63056
        },
        {
            "buffer" : 0,
            "byteLength" : 48,
            "byteOffset" : 98652
        },
        {
            "buffer" : 0,
            "byteLength" : 48,
            "byteOffset" : 98700
        },
        {
            "buffer" : 0,
            "byteLength" : 32,
            "byteOffset" : 98748
        },
        {
            "buffer" : 0,
            "byteLength" : 20684,
            "byteOffset" : 98780
        },
        {
            "buffer" : 0,
            "byteLength" : 48,
            "byteOffset" : 119464
        },
        {
            "buffer" : 0,
            "byteLength" : 48,
            "byteOffset" : 119512
        },
        {
            "buffer" : 0,
            "byteLength" : 32,
            "byteOffset" : 119560
        },
        {
            "buffer" : 0,
            "byteLength" : 15689,
            "byteOffset" : 119592
        }
    ],
    "samplers" : [
        {
            "magFilter" : 9729,
            "minFilter" : 9987
        },
        {
            "magFilter" : 9729,
            "minFilter" : 9987,
            "wrapS" : 33071,
            "wrapT" : 33071
        }
    ],
    "buffers" : [
        {
            "byteLength" : 135284,
            "uri" : "data:application/octet-stream;base64,"
        }
    ]
}
